<svg xmlns="http://www.w3.org/2000/svg" xmlns:xlink="http://www.w3.org/1999/xlink" width="56.255" height="56.667" viewBox="0 0 56.255 56.667"><defs><style>.a{fill:none;}.b{fill:rgba(0,0,0,0.2);}.c{fill:url(#c);}.d{fill:url(#d);}.e{fill:#fff;fill-rule:evenodd;}.f{filter:url(#e);}.g{filter:url(#a);}</style><filter id="a" x="0" y="0.138" width="56.255" height="56.529" filterUnits="userSpaceOnUse"><feOffset dy="3" input="SourceAlpha"/><feGaussianBlur stdDeviation="3" result="b"/><feFlood flood-opacity="0.161"/><feComposite operator="in" in2="b"/><feComposite in="SourceGraphic"/></filter><linearGradient id="c" x1="0.501" y1="1" x2="0.501" y2="0.002" gradientUnits="objectBoundingBox"><stop offset="0" stop-color="#20b038"/><stop offset="1" stop-color="#60d66a"/></linearGradient><linearGradient id="d" x1="0.501" y1="1" x2="0.501" y2="0.002" gradientUnits="objectBoundingBox"><stop offset="0" stop-color="#f9f9f9"/><stop offset="1" stop-color="#fff"/></linearGradient><filter id="e" x="0.028" y="0" width="56.222" height="56.393" filterUnits="userSpaceOnUse"><feOffset dy="3" input="SourceAlpha"/><feGaussianBlur stdDeviation="3" result="f"/><feFlood flood-opacity="0.161"/><feComposite operator="in" in2="f"/><feComposite in="SourceGraphic"/></filter></defs><g transform="translate(9 6)"><g transform="translate(0 0.138)"><path class="a" d="M574.16-967.389a19.094,19.094,0,0,0,2.542,9.545l-2.7,9.893,10.1-2.655a19,19,0,0,0,9.1,2.324h.008a19.1,19.1,0,0,0,19.047-19.092,19,19,0,0,0-5.574-13.507,18.9,18.9,0,0,0-13.474-5.6A19.1,19.1,0,0,0,574.16-967.389Z" transform="translate(-574 986.48)"/><g class="g" transform="matrix(1, 0, 0, 1, -9, -6.14)"><path class="b" d="M574.16-967.389a19.094,19.094,0,0,0,2.542,9.545l-2.7,9.893,10.1-2.655a19,19,0,0,0,9.1,2.324h.008a19.1,19.1,0,0,0,19.047-19.092,19,19,0,0,0-5.574-13.507,18.9,18.9,0,0,0-13.474-5.6A19.1,19.1,0,0,0,574.16-967.389Z" transform="translate(-565 992.62)"/></g></g><path class="c" d="M.231-524.413a18.332,18.332,0,0,0,2.453,9.182L.077-505.714l9.739-2.554a18.366,18.366,0,0,0,8.779,2.235H18.6A18.4,18.4,0,0,0,36.975-524.4,18.251,18.251,0,0,0,31.6-537.392a18.257,18.257,0,0,0-13-5.386A18.4,18.4,0,0,0,.231-524.413" transform="translate(0.613 543.443)"/><g class="f" transform="matrix(1, 0, 0, 1, -9, -6)"><path class="d" d="M.232-542.8a18.989,18.989,0,0,0,2.54,9.511l-2.7,9.858,10.089-2.645a19.017,19.017,0,0,0,9.094,2.316h.008a19.056,19.056,0,0,0,19.031-19.025,18.908,18.908,0,0,0-5.569-13.46,18.913,18.913,0,0,0-13.462-5.579A19.054,19.054,0,0,0,.232-542.8Zm6.008,9.015-.377-.6A15.77,15.77,0,0,1,3.445-542.8a15.838,15.838,0,0,1,15.824-15.812,15.715,15.715,0,0,1,11.183,4.637,15.716,15.716,0,0,1,4.629,11.187,15.838,15.838,0,0,1-15.817,15.813h-.006a15.8,15.8,0,0,1-8.051-2.2l-.578-.343-5.987,1.57Z" transform="translate(8.96 567.83)"/></g><path class="e" d="M175.743,175.445c-.356-.792-.731-.808-1.07-.822-.277-.012-.594-.011-.911-.011a1.747,1.747,0,0,0-1.268.595,5.33,5.33,0,0,0-1.664,3.966,9.25,9.25,0,0,0,1.942,4.918c.238.317,3.29,5.271,8.123,7.177,4.017,1.584,4.834,1.269,5.706,1.19a4.8,4.8,0,0,0,3.21-2.26,3.973,3.973,0,0,0,.277-2.261c-.119-.2-.436-.317-.911-.555s-2.813-1.388-3.249-1.547-.753-.238-1.07.238-1.228,1.546-1.505,1.863-.555.357-1.03.12a13.008,13.008,0,0,1-3.824-2.36,14.329,14.329,0,0,1-2.645-3.293c-.277-.476-.03-.733.209-.97.214-.213.476-.555.713-.833a3.261,3.261,0,0,0,.475-.793.875.875,0,0,0-.04-.833c-.119-.238-1.043-2.589-1.466-3.53" transform="translate(-161.281 -164.374)"/></g></svg>